<?xml version="1.0" encoding="UTF-8"?>
<svg version="1.1" xmlns="http://www.w3.org/2000/svg" width="582" height="484">
<path d="M0 0 C192.06 0 384.12 0 582 0 C582 159.72 582 319.44 582 484 C389.94 484 197.88 484 0 484 C0 324.28 0 164.56 0 0 Z " fill="#FEFEFE" transform="translate(0,0)"/>
<path d="M0 0 C0.94875 0.00644531 1.8975 0.01289063 2.875 0.01953125 C21.09246862 0.7693356 38.05584363 11.1906507 51.22265625 22.9921875 C54.38678148 26.56660589 54.41268348 30.63127094 54.3359375 35.328125 C52.34340474 51.17571114 40.87490247 65.97962543 31 78 C30.5570459 78.54591797 30.1140918 79.09183594 29.65771484 79.65429688 C18.18339742 93.72727008 5.4197077 106.9356882 -9 118 C-10.48306641 119.20849609 -10.48306641 119.20849609 -11.99609375 120.44140625 C-24.06625474 130.19576968 -39.65107562 141.46008087 -55.67578125 141.43359375 C-63.01778986 140.06390811 -67.50778134 133.50713443 -71.73339844 127.84765625 C-77.17767926 119.90580636 -81.67215787 110.34637366 -84 101 C-84.20238281 100.27039063 -84.40476562 99.54078125 -84.61328125 98.7890625 C-89.7492269 76.63811324 -84.73855111 56.43166392 -74 37 C-73.34 36.01 -72.68 35.02 -72 34 C-72.53109375 33.69707031 -73.0621875 33.39414063 -73.609375 33.08203125 C-78.60218663 30.12096596 -82.33682775 27.3263445 -85 22 C-85.66839948 16.61993202 -85.3649226 12.08537315 -82.3203125 7.5078125 C-79.37154782 4.14028834 -76.20414835 2.37841131 -71.79296875 1.62109375 C-66.0615053 1.31840999 -62.58364032 2.58473859 -58 6 C-55.6697615 9.00478122 -54.19914847 11.40255459 -53 15 C-52.22398437 14.48050781 -51.44796875 13.96101562 -50.6484375 13.42578125 C-34.56946589 3.04544277 -18.92767822 -0.5533293 0 0 Z " fill="#FA2D48" transform="translate(504,169)"/>
<path d="M0 0 C-0.33 6.93 -0.66 13.86 -1 21 C-6.05391246 19.98921751 -6.55885898 19.82367222 -9.8125 16.4375 C-16.06014228 10.65609968 -23.29522541 7.41128849 -31 4 C-32.12792969 3.46761719 -33.25585938 2.93523437 -34.41796875 2.38671875 C-42.83435421 -1.05150546 -50.66742846 -1.45102113 -59.6875 -1.5 C-61.37999878 -1.50966797 -61.37999878 -1.50966797 -63.10668945 -1.51953125 C-78.17375979 -1.29062535 -91.75593547 2.72284748 -102.9375 13.125 C-111.35295419 22.06187282 -114.34499662 32.87795811 -115.3125 44.875 C-114.79648632 59.96081156 -107.17385396 72.30896775 -96.60107422 82.53564453 C-85.44664637 92.73757473 -71.86885082 100.22387201 -59 108 C4.62320827 146.46935611 4.62320827 146.46935611 12 175 C12.1762793 175.65830811 12.35255859 176.31661621 12.53417969 176.99487305 C14.02600752 183.04530049 14.38493173 188.84366744 14.375 195.0625 C14.37367065 196.56889038 14.37367065 196.56889038 14.37231445 198.10571289 C14.23360936 206.9258081 12.74466915 214.62472283 10 223 C9.6596875 224.17175781 9.6596875 224.17175781 9.3125 225.3671875 C4.02829887 241.8142635 -9.91709397 253.71826192 -24.75 261.4296875 C-30.97733898 264.41951786 -37.26851648 266.48168625 -44 268 C-44.6698291 268.16918945 -45.3396582 268.33837891 -46.02978516 268.51269531 C-53.73141739 270.29649992 -61.37477861 270.39789577 -69.25 270.375 C-69.95519775 270.37445618 -70.66039551 270.37391235 -71.38696289 270.37335205 C-83.95250588 270.32900725 -95.78271917 268.962756 -108 266 C-109.02158203 265.75910645 -110.04316406 265.51821289 -111.09570312 265.27001953 C-140.76090131 258.23909869 -140.76090131 258.23909869 -143 256 C-143.01665074 254.43576568 -142.96308892 252.87064994 -142.87890625 251.30859375 C-142.83056641 250.36435547 -142.78222656 249.42011719 -142.73242188 248.44726562 C-142.67634766 247.45404297 -142.62027344 246.46082031 -142.5625 245.4375 C-142.48418945 243.94186523 -142.48418945 243.94186523 -142.40429688 242.41601562 C-142.2741763 239.94372478 -142.13919819 237.4717937 -142 235 C-140.02 234.01 -140.02 234.01 -138 233 C-137.29617187 233.556875 -136.59234375 234.11375 -135.8671875 234.6875 C-121.28235731 245.95932699 -106.03236316 253.63513146 -88 258 C-86.89205078 258.309375 -86.89205078 258.309375 -85.76171875 258.625 C-68.47548767 262.92416628 -48.77233705 260.37486716 -33.23046875 252.015625 C-21.21324268 244.51757343 -13.85874405 234.55507527 -10 221 C-8.98614225 216.06265164 -8.69704056 211.14562065 -8.4375 206.125 C-8.37272461 204.949375 -8.37272461 204.949375 -8.30664062 203.75 C-8.20146649 201.83349351 -8.10032075 199.91676667 -8 198 C-8.66 198 -9.32 198 -10 198 C-10.14695313 197.26136719 -10.29390625 196.52273438 -10.4453125 195.76171875 C-13.27002821 182.98556208 -18.94135443 174.29914059 -28 165 C-28.55300781 164.39671875 -29.10601562 163.7934375 -29.67578125 163.171875 C-43.70281416 148.27467876 -62.96090446 138.14223638 -80.375 127.8125 C-103.84042046 113.86170554 -127.96761542 98.12859953 -136.16870117 70.59375 C-137.53294407 64.69605381 -137.57954379 58.96625608 -137.5 52.9375 C-137.51546875 51.76123047 -137.5309375 50.58496094 -137.546875 49.37304688 C-137.47350353 32.78192349 -130.53948074 20.21711839 -119.3828125 8.28515625 C-112.86591018 2.03534009 -105.22541473 -2.37546766 -97 -6 C-96.34128906 -6.29777344 -95.68257812 -6.59554687 -95.00390625 -6.90234375 C-67.4892783 -17.68292897 -25.98927306 -12.99463653 0 0 Z " fill="#959192" transform="translate(264,66)"/>
<path d="M0 0 C-2.47651081 1.25089067 -4.96697021 2.46388436 -7.46875 3.6640625 C-33.46125639 16.23325435 -56.6895678 35.68078723 -74.75 58.1953125 C-76.14628454 59.93581997 -77.5599302 61.66272989 -79 63.3671875 C-87.80283406 73.90929119 -98.65933561 88.22144981 -101 102 C-101.66 102 -102.32 102 -103 102 C-115.33601664 85.97403117 -117.72190982 65.88332422 -115.375 46.4375 C-112.013591 27.68315598 -101.15250343 10.72272995 -85.7109375 -0.44140625 C-78.27569818 -5.5610758 -70.6333396 -9.26400156 -62 -12 C-61.26910156 -12.24492187 -60.53820312 -12.48984375 -59.78515625 -12.7421875 C-40.0452916 -18.27389621 -15.98478797 -12.01956925 0 0 Z " fill="#FEFCFC" transform="translate(541,190)"/>
<path d="M0 0 C2.07144072 13.57944474 -6.32582275 25.34355415 -14.01416016 35.85302734 C-25.08975636 50.53579403 -37.69490081 65.39995364 -52 77 C-53.17139344 77.99382535 -54.34186943 78.9887325 -55.51171875 79.984375 C-84.107255 104.07112997 -84.107255 104.07112997 -99.6875 104.375 C-103 104 -103 104 -104 103 C-105.98984617 90.39764094 -96.33187561 77.81390522 -89.28515625 68.0234375 C-85.6597825 63.22678916 -81.91171629 58.56596461 -78 54 C-77.3503125 53.23816406 -76.700625 52.47632813 -76.03125 51.69140625 C-64.54128914 38.58843165 -52.20158798 26.14794618 -38 16 C-37.38914551 15.56075195 -36.77829102 15.12150391 -36.14892578 14.66894531 C-13.26494845 -1.61694631 -13.26494845 -1.61694631 0 0 Z " fill="#FEFDFD" transform="translate(550,198)"/>
<path d="M0 0 C3.77489111 2.40220343 6.59208852 5.27521416 8.3125 9.4375 C9.37242976 15.18738443 8.67094752 20.29617837 5.76953125 25.37109375 C1.03860279 32.08064108 -4.79273609 37.7966479 -11.05859375 43.0625 C-12.79650577 44.49035575 -12.79650577 44.49035575 -14.6875 46.4375 C-6.7675 46.7675 1.1525 47.0975 9.3125 47.4375 C9.3125 50.7375 9.3125 54.0375 9.3125 57.4375 C-4.5475 57.4375 -18.4075 57.4375 -32.6875 57.4375 C-32.6875 48.4375 -32.6875 48.4375 -30.78125 45.6171875 C-29.9253125 44.85664062 -29.069375 44.09609375 -28.1875 43.3125 C-27.27226562 42.4771875 -26.35703125 41.641875 -25.4140625 40.78125 C-24.06441406 39.62109375 -24.06441406 39.62109375 -22.6875 38.4375 C-21.97335937 37.8084375 -21.25921875 37.179375 -20.5234375 36.53125 C-19.23446752 35.40147551 -17.94031953 34.27757655 -16.640625 33.16015625 C-8.01482167 25.9721992 -8.01482167 25.9721992 -4.375 15.875 C-4.3823854 12.51547711 -4.3823854 12.51547711 -6.0625 10.5625 C-9.37261672 8.27088073 -11.67220275 8.11627622 -15.6875 8.4375 C-18.07192803 9.49643971 -18.07192803 9.49643971 -19.6875 11.4375 C-20.0175 13.0875 -20.3475 14.7375 -20.6875 16.4375 C-24.6475 16.4375 -28.6075 16.4375 -32.6875 16.4375 C-32.6875 9.78890112 -31.76133506 7.3723002 -27.6875 2.4375 C-20.92632665 -3.57243186 -8.1296103 -3.58385492 0 0 Z " fill="#959192" transform="translate(332.6875,56.5625)"/>
<path d="M0 0 C3.47899158 1.39159663 4.48052501 2.63251488 6 6 C5.32904297 6.78310547 5.32904297 6.78310547 4.64453125 7.58203125 C-5.09743581 19.44272036 -8.34785518 30.8604901 -8.125 45.9375 C-8.11146484 47.67870117 -8.11146484 47.67870117 -8.09765625 49.45507812 C-8.07421162 52.30360108 -8.04139522 55.15169078 -8 58 C-10.64738916 59.4606285 -11.89448334 60 -15 60 C-18.8873933 44.31159132 -17.57754678 28.39553039 -10 14 C-3.55922469 3.55922469 -3.55922469 3.55922469 0 0 Z " fill="#FA2F49" transform="translate(453,206)"/>
<path d="M0 0 C3.5 0.75 3.5 0.75 6.5 3.375 C8.5 6.75 8.5 6.75 8.5625 9.875 C7.32481182 13.22403861 6.45552697 14.72779734 3.5 16.75 C-0.4491615 17.31416593 -2.5464384 17.40243688 -5.875 15.125 C-7.93188056 12.11878996 -8.5732472 10.4123602 -8.5 6.75 C-6.06722718 2.64469586 -4.71689531 1.01076328 0 0 Z " fill="#FEF6F7" transform="translate(434.5,177.25)"/>
<path d="M0 0 C0.99 0 1.98 0 3 0 C3 1.65 3 3.3 3 5 C4.98 5 6.96 5 9 5 C9 3.35 9 1.7 9 0 C9.99 0 10.98 0 12 0 C12 4.62 12 9.24 12 14 C11.01 14 10.02 14 9 14 C9 12.02 9 10.04 9 8 C7.02 8 5.04 8 3 8 C3 9.98 3 11.96 3 14 C2.01 14 1.02 14 0 14 C0 9.38 0 4.76 0 0 Z " fill="#FA3F57" transform="translate(121,404)"/>
<path d="M0 0 C0.66 0 1.32 0 2 0 C2.33 4.95 2.66 9.9 3 15 C0.03 15 -2.94 15 -6 15 C-6.93131785 11.95205066 -7.29757762 10.57949326 -5.8125 7.6875 C-4 6 -4 6 0 6 C0 4.02 0 2.04 0 0 Z " fill="#FA4B61" transform="translate(254,403)"/>
<path d="M0 0 C3 0.125 3 0.125 4 1.125 C4.1875 4.0625 4.1875 4.0625 4 7.125 C2 9.125 2 9.125 -0.5625 9.3125 C-3 9.125 -3 9.125 -4 8.125 C-4.125 4.625 -4.125 4.625 -4 1.125 C-3 0.125 -3 0.125 0 0 Z " fill="#FA3B54" transform="translate(241,408.875)"/>
<path d="M0 0 C3 0.125 3 0.125 4 1.125 C4.1875 4.0625 4.1875 4.0625 4 7.125 C2 9.125 2 9.125 -0.5625 9.3125 C-3 9.125 -3 9.125 -4 8.125 C-4.125 4.625 -4.125 4.625 -4 1.125 C-3 0.125 -3 0.125 0 0 Z " fill="#FB6F81" transform="translate(231,408.875)"/>
<path d="M0 0 C3 0.125 3 0.125 4 1.125 C4.1875 4.0625 4.1875 4.0625 4 7.125 C2 9.125 2 9.125 -0.5625 9.3125 C-3 9.125 -3 9.125 -4 8.125 C-4.125 4.625 -4.125 4.625 -4 1.125 C-3 0.125 -3 0.125 0 0 Z " fill="#FA3C54" transform="translate(188,408.875)"/>
<path d="M0 0 C1.65 0 3.3 0 5 0 C5 0.99 5 1.98 5 3 C4.360625 3.12375 3.72125 3.2475 3.0625 3.375 C2.381875 3.58125 1.70125 3.7875 1 4 C0.67 4.66 0.34 5.32 0 6 C0.99 6 1.98 6 3 6 C3 6.66 3 7.32 3 8 C2.01 8 1.02 8 0 8 C0 11.63 0 15.26 0 19 C-0.99 19 -1.98 19 -3 19 C-3.55353075 5.18223235 -3.55353075 5.18223235 0 0 Z " fill="#FA3D55" transform="translate(223,403)"/>
<path d="M0 0 C0.99 0.33 1.98 0.66 3 1 C3.33 2.98 3.66 4.96 4 7 C4.66 6.67 5.32 6.34 6 6 C6 4.35 6 2.7 6 1 C6.99 0.67 7.98 0.34 9 0 C8.60194741 5.77176259 7.95878176 9.49138743 4 14 C1.25 14.875 1.25 14.875 -1 15 C-1 14.01 -1 13.02 -1 12 C-0.195625 11.87625 0.60875 11.7525 1.4375 11.625 C2.283125 11.41875 3.12875 11.2125 4 11 C4.33 10.34 4.66 9.68 5 9 C4.01 9 3.02 9 2 9 C1.34 6.03 0.68 3.06 0 0 Z " fill="#FA354E" transform="translate(173,409)"/>
<path d="M0 0 C0.66 0 1.32 0 2 0 C2 2.31 2 4.62 2 7 C5.32901247 4.78065836 5.75023244 3.65316671 7 0 C7.66 0 8.32 0 9 0 C8.67 2.31 8.34 4.62 8 7 C8.66 7 9.32 7 10 7 C10 7.66 10 8.32 10 9 C6.7 9 3.4 9 0 9 C-0.87890625 2.84765625 -0.87890625 2.84765625 -1 1 C-0.67 0.67 -0.34 0.34 0 0 Z " fill="#FA435B" transform="translate(195,409)"/>
<path d="M0 0 C0.5775 0.165 1.155 0.33 1.75 0.5 C4.45033485 1.10007441 6.34161797 0.66459551 9 0 C9.33 2.97 9.66 5.94 10 9 C9.01 9 8.02 9 7 9 C7 6.69 7 4.38 7 2 C4.65941363 4.12780579 3.29299694 6.11562221 2 9 C1.67 9 1.34 9 1 9 C0.63877119 7.68942607 0.28619689 6.37646376 -0.0625 5.0625 C-0.35833984 3.96615234 -0.35833984 3.96615234 -0.66015625 2.84765625 C-0.77230469 2.23792969 -0.88445312 1.62820313 -1 1 C-0.67 0.67 -0.34 0.34 0 0 Z " fill="#FA3E56" transform="translate(147,409)"/>
<path d="M0 0 C0.99 0 1.98 0 3 0 C3 2.31 3 4.62 3 7 C5.34058637 4.87219421 6.70700306 2.88437779 8 0 C8.33 0 8.66 0 9 0 C9.33 2.97 9.66 5.94 10 9 C8.68 8.67 7.36 8.34 6 8 C3.31850007 8.38567131 3.31850007 8.38567131 1 9 C0.67 6.03 0.34 3.06 0 0 Z " fill="#FA3D56" transform="translate(135,409)"/>
<path d="M0 0 C0.66 0 1.32 0 2 0 C2.33 4.95 2.66 9.9 3 15 C0.03 15 -2.94 15 -6 15 C-6 14.34 -6 13.68 -6 13 C-4.35 12.34 -2.7 11.68 -1 11 C-0.835 9.741875 -0.67 8.48375 -0.5 7.1875 C-0.4071875 6.47980469 -0.314375 5.77210938 -0.21875 5.04296875 C0.053233 2.84528294 0.053233 2.84528294 0 0 Z " fill="#FA344D" transform="translate(254,403)"/>
<path d="M0 0 C0.66 0 1.32 0 2 0 C2 0.66 2 1.32 2 2 C2.66 2 3.32 2 4 2 C4 2.66 4 3.32 4 4 C3.01 4 2.02 4 1 4 C1 5.65 1 7.3 1 9 C1.99 9 2.98 9 4 9 C4 9.66 4 10.32 4 11 C2.35 11 0.7 11 -1 11 C-1.22174933 9.54364629 -1.42698698 8.08477044 -1.625 6.625 C-1.74101562 5.81289063 -1.85703125 5.00078125 -1.9765625 4.1640625 C-1.98429688 3.44992187 -1.99203125 2.73578125 -2 2 C-1.34 1.34 -0.68 0.68 0 0 Z " fill="#FA3F57" transform="translate(161,407)"/>
<path d="M0 0 C0.33 0 0.66 0 1 0 C1 3.63 1 7.26 1 11 C0.01 11 -0.98 11 -2 11 C-2.28571429 3.57142857 -2.28571429 3.57142857 0 0 Z " fill="#FB596E" transform="translate(222,411)"/>
<path d="M0 0 C2.31 0 4.62 0 7 0 C7 0.66 7 1.32 7 2 C6.01 2.33 5.02 2.66 4 3 C3.67 4.98 3.34 6.96 3 9 C2.34 9 1.68 9 1 9 C0.67 6.03 0.34 3.06 0 0 Z " fill="#FA3B53" transform="translate(206,409)"/>
<path d="M0 0 C1.32 0.33 2.64 0.66 4 1 C4 2.98 4 4.96 4 7 C3.01 7.33 2.02 7.66 1 8 C-0.35439668 5.29120665 -0.06501451 2.99066732 0 0 Z " fill="#FEE0E4" transform="translate(156,410)"/>
<path d="M0 0 C0.99 0.33 1.98 0.66 3 1 C3.33 3.64 3.66 6.28 4 9 C2 9 2 9 0.375 7.8125 C-1.43574835 5.42560445 -1.30813578 3.92728993 -1 1 C-0.67 0.67 -0.34 0.34 0 0 Z " fill="#FEF0F1" transform="translate(204,410)"/>
<path d="M0 0 C1.32 0.33 2.64 0.66 4 1 C4 2.98 4 4.96 4 7 C3.01 7.33 2.02 7.66 1 8 C-0.35439668 5.29120665 -0.06501451 2.99066732 0 0 Z " fill="#FEE1E5" transform="translate(132,410)"/>
<path d="M0 0 C0.99 0 1.98 0 3 0 C3 1.98 3 3.96 3 6 C0.03 6 -2.94 6 -6 6 C-6 5.67 -6 5.34 -6 5 C-4.02 5 -2.04 5 0 5 C0 3.35 0 1.7 0 0 Z " fill="#FB6579" transform="translate(130,404)"/>
<path d="M0 0 C1.98 0.495 1.98 0.495 4 1 C3.67 2.32 3.34 3.64 3 5 C1.68 4.67 0.36 4.34 -1 4 C-0.67 2.68 -0.34 1.36 0 0 Z " fill="#FEE9EB" transform="translate(240,411)"/>
<path d="M0 0 C1.98 0.495 1.98 0.495 4 1 C3.67 2.32 3.34 3.64 3 5 C1.68 4.67 0.36 4.34 -1 4 C-0.67 2.68 -0.34 1.36 0 0 Z " fill="#FEE9EB" transform="translate(187,411)"/>
<path d="M0 0 C0.99 0.33 1.98 0.66 3 1 C3.625 3.875 3.625 3.875 4 7 C3.34 7.66 2.68 8.32 2 9 C1.34 6.03 0.68 3.06 0 0 Z " fill="#FA4E64" transform="translate(173,409)"/>
<path d="M0 0 C0.99 0.33 1.98 0.66 3 1 C2.34 2.32 1.68 3.64 1 5 C0.01 4.67 -0.98 4.34 -2 4 C-2 3.01 -2 2.02 -2 1 C-1.34 0.67 -0.68 0.34 0 0 Z " fill="#FEE9EC" transform="translate(251,411)"/>
<path d="M0 0 C1.65 0 3.3 0 5 0 C5 0.99 5 1.98 5 3 C3.35 3.33 1.7 3.66 0 4 C0 2.68 0 1.36 0 0 Z " fill="#FB5167" transform="translate(223,403)"/>
</svg>
